<?xml version="1.0" encoding="utf-8"?>
<!--Designed by Vexels.com - 2018 All Rights Reserved - https://vexels.com/terms-and-conditions/-->
<svg version="1.1" id="Layer_1" xmlns="http://www.w3.org/2000/svg" xmlns:xlink="http://www.w3.org/1999/xlink" x="0px" y="0px"
	 viewBox="0 0 1200 1200" enable-background="new 0 0 1200 1200" xml:space="preserve">
<g>
	<path d="M866.987,250.651c-4.195-55.736-22.028-113.932-66.645-150.735c-20.976-17.303-46.327-26.51-71.636-35.566
		c-33.745-12.074-66.511-19.488-101.925-10.1c-47.54,12.603-110.949,45.033-124.194,96.896c-0.366,1.431,0.284,2.809,1.309,3.739
		c-0.806,1.754-1.632,3.495-2.383,5.285c-31.597,75.328-42.854,162.158-48.603,243.007c-5.4,75.928-3.137,151.731,1.547,227.509
		c-21.282-0.018-45.566-0.47-64.539,9.105c-18.256,9.213-33.344,24.376-50.676,35.54c-1.543,0.425-2.963,1.251-4.065,2.576
		c-0.077,0.045-0.15,0.098-0.226,0.143c-1.158,0.681-1.616,1.967-1.547,3.236c-5.859,19.78-1.923,33.12,3.757,52.619
		c4.424,15.185,2.511,30.827,6.057,45.564c7.8,32.423,55.334,18.775,78.492,17.486c15.156-0.842,30.312-1.671,45.468-2.504
		c7.58,83.617,15.906,167.28,27.787,250.406c3.513,24.581,6.998,49.378,12.698,73.571c2.331,9.892,4.021,21.375,12.762,27.478
		c11.178,7.806,31.542,2.39,43.084,0.559c13.344-2.117,30.085-0.541,41.946-8.238c9.003-5.843,13.34-14.337,15.061-23.886
		c30.178-45.888,42.642-88.324,30.507-144.163c-2.167-9.972-4.742-19.759-7.489-29.451c0.465-1.586-0.064-3.039-1.161-4.085
		c-13.256-45.781-30.217-89.37-31.103-137.505c0.61-1.207,1.12-2.409,1.386-3.59c0.338-1.502-0.348-3.048-1.465-4.153
		c0.03-1.63,0.168-3.29,0.237-4.931c37.09-2.091,74.177-4.222,111.255-6.493c3-0.184,5.92-1.248,8.095-3.087
		c3.119,3.746,8.914,4.764,12.459-0.977c8.287-13.42,18.552-25.933,19.057-41.757c0.695-21.834-9.511-49.32-14.697-70.592
		c-2.207-9.05-4.776-26.491-12.177-36.472c0.566-1.763,1.145-3.517,1.679-5.297c1.291-4.306-2.409-10.511-7.124-10.623
		c-37.25-0.88-77.391-5.055-112.567,9.685c-11.933-29.072-9.397-64.722-8.528-95.503c0.716-25.379,2.987-50.721,6.7-75.834
		c2.851-19.275,6.68-38.416,11.377-57.336c0.481-0.325,1.033-0.559,1.485-0.919c1.69-1.345,1.376-4.253,0.21-5.792
		c-0.003-0.004-0.007-0.007-0.009-0.011c1.563-5.993,3.183-11.972,4.935-17.911c4.216-14.3,10.896-38.897,21.381-54.868
		c3.67-0.294,6.676-3.265,5.087-6.622c2.839-3.133,5.915-5.572,9.248-7.072c2.068,0.807,4.497,0.493,5.282-1.507
		c6.993-0.897,14.979,2.273,24.126,11.611c1.13,1.154,2.324,1.93,3.534,2.434c0.784,12.576,0.813,25.246,1.611,36.069
		c1.617,21.937,1.508,46.224,17.289,63.337c20.431,22.154,60.296,23.08,87.758,17.289c8.266-1.743,13.892-5.084,17.787-9.496
		c1.615-0.381,3.227-1.185,4.757-2.602C875.629,375.193,871.142,305.842,866.987,250.651z M839.561,197.374
		c-5.313,4.856-8.974,11.702-13.231,17.442c-2.229,3.006-4.546,5.941-6.935,8.815c-0.016-0.055-0.027-0.109-0.042-0.164
		c-1.577-4.761-3.364-9.604-5.246-14.472c1.373,0.579,2.958,0.511,4.111-0.765c6.126-6.78,12.502-13.565,18.314-20.678
		C837.616,190.802,838.627,194.075,839.561,197.374z M834.346,219.98c2.761-3.56,5.797-7.292,8.111-11.327
		c0.657,2.851,1.268,5.709,1.823,8.578c-2.171,2.572-4.294,5.197-6.504,7.814c-4.456,5.278-9.291,10.183-14.027,15.193
		c-0.476-2.016-1.068-4.021-1.582-6.034C826.399,229.614,830.513,224.92,834.346,219.98z M846.564,333.054
		c-2.674,2.391-5.165,5.028-7.581,7.662c-1.281,1.396-2.702,2.595-4.089,3.84c-0.031-2.816-0.086-5.627-0.148-8.438
		c1.606-1.313,3.134-2.715,4.466-4.325c2.057-2.489,3.182-5.939,4.205-8.974c0.782-2.317-1.866-4.034-3.081-1.603
		c-1.431,2.866-3.708,5.222-5.761,7.656c-0.115-3.546-0.294-7.084-0.468-10.623c3.257-4.949,7.639-10.348,8.772-16.036
		c0.446-2.24-2.443-5.494-4.637-3.623c-2.237,1.908-3.562,4.206-4.941,6.669c-0.171-2.353-0.335-4.708-0.538-7.057
		c1.342,0.828,2.961,0.882,3.796-0.818c2.938-5.986,6.857-12.115,8.024-18.71c0.487-2.748-3.081-5.693-5.164-3.081
		c-3.403,4.269-5.365,9.825-7.38,15.052c-0.52-5.082-1.09-10.158-1.787-15.22c4.501-5.23,8.932-10.509,13.275-15.895
		c1.644-2.038,3.478-4.099,5.315-6.2C850.582,277.04,851.187,306.175,846.564,333.054z M847.618,239.698
		c-4.495,5.346-8.354,11.747-12.295,17.122c-2.255,3.076-4.345,6.253-6.526,9.366c-0.845-5.239-1.81-10.466-2.879-15.683
		c0.29-0.105,0.584-0.162,0.861-0.367c6.959-5.099,13.061-11.175,18.897-17.517c0.33-0.359,0.642-0.72,0.969-1.078
		C847.017,234.264,847.333,236.98,847.618,239.698z M834.896,366.853c0.05-3.995,0.041-7.979,0.045-11.966
		c2.989-2.012,5.877-4.28,8.395-6.868c-2.15,8.17-4.939,15.929-8.446,23.097C834.883,369.691,834.879,368.268,834.896,366.853z
		 M814.771,142.644c-1.987,1.451-3.903,3.008-5.8,4.517c-5.166,4.11-10.884,9.368-14.625,14.796
		c-2.512,3.646,2.535,8.024,6.01,5.929c4.426-2.667,8.291-6.772,12.175-10.169c2.462-2.154,4.951-4.62,7.18-7.277
		c5.187,8.713,9.61,17.912,13.324,27.446c-9.216,6.009-16.634,15.391-21.206,25.3c-2.035-4.975-4.258-9.97-6.599-14.967
		c2.801-2.841,5.502-5.777,7.991-8.915c3.811-4.804,7.963-9.819,8.752-16.058c0.287-2.264-2.155-4.176-4.055-2.669
		c-4.55,3.613-6.98,9.796-10.326,14.481c-1.69,2.366-3.496,4.634-5.375,6.84c-3.401-6.871-7.099-13.699-11.059-20.418
		c6.437-7.414,13.114-15.664,15.079-25.333c0.648-3.188-3.945-8.094-6.862-4.87c-5.526,6.108-9.771,13.167-14.631,19.807
		c-2.88-4.462-5.881-8.845-9.007-13.133c1.244-0.26,2.415-0.887,3.257-2.115c2.42-3.527,4.729-7.142,7.332-10.54
		c1.986-2.593,4.509-5.525,6.241-8.625C801.03,124.454,808.398,133.192,814.771,142.644z M785.933,110.978
		c-2.999,1.92-5.772,4.497-7.939,6.851c-3.26,3.542-6.297,7.408-8.717,11.582c-0.977-1.23-2.008-2.402-3.006-3.61
		c4.711-6.419,10.3-12.125,15.278-18.304C783.058,108.612,784.483,109.807,785.933,110.978z M773.89,102.222
		c-5.604,4.389-10.271,9.831-14.474,15.622c-2.322-2.572-4.68-5.098-7.104-7.538c0.188-0.071,0.373-0.087,0.562-0.191
		c4.612-2.534,9.019-6.888,12.497-10.813c0.469-0.53,0.711-1.148,0.849-1.787c2.442,1.447,4.862,2.908,7.217,4.395
		C773.594,102.009,773.735,102.124,773.89,102.222z M706.913,72.119c-1.578,0.772-2.957,1.87-4.268,3.064
		c-5.494-2.343-11.248-4.254-17.177-5.776c0.427-1.107,0.14-2.351-0.559-3.422c10.438,1.824,20.814,4.574,30.976,8.054
		c-0.911,0.933-1.754,1.946-2.527,3.079c-0.562,0.822-0.995,1.725-1.446,2.616c-0.963-0.512-1.915-1.049-2.887-1.538
		c0.347-0.76,0.731-1.506,0.952-2.313C710.449,74.157,709.205,70.997,706.913,72.119z M675.937,67.292
		c-1.322-0.243-2.657-0.445-3.991-0.652c0.301-0.567,0.555-1.154,0.698-1.781c0.04-0.177-0.009-0.385-0.001-0.578
		c2.025,0.203,4.049,0.422,6.074,0.701c-0.216,0.167-0.463,0.282-0.683,0.468C677.325,66.05,676.634,66.673,675.937,67.292z
		 M643.497,64.75c-1.673,0.03-3.339,0.105-5.005,0.182c2.655-0.4,5.325-0.686,8.006-0.913
		C645.488,64.27,644.488,64.513,643.497,64.75z M757.449,92.513c-2.115,1.307-3.95,3.012-5.778,4.964
		c-1.795,1.917-4.248,3.942-5.153,6.468c-0.076,0.209-0.077,0.431-0.117,0.648c-3.482-3.234-7.041-6.346-10.713-9.265
		c3.014-3.101,5.73-6.171,7.92-9.889C748.319,87.697,752.949,90.048,757.449,92.513z M735.002,81.493
		c-3.039,2.132-5.947,4.421-8.734,6.864c-1.862-1.278-3.779-2.439-5.684-3.628c0.226-0.36,0.439-0.732,0.697-1.061
		c1.601-2.049,3.661-3.664,5.285-5.695C729.405,79.097,732.214,80.273,735.002,81.493z M684.16,257.282
		c0.409,6.235,0.338,12.41,0.18,18.595c-1.14-0.307-2.26-0.54-3.37-0.728c-0.074-0.294-0.164-0.59-0.234-0.884
		c-1.836-7.687-3.679-15.371-5.5-23.062C678.355,252.594,681.351,254.584,684.16,257.282z M669.597,249.357
		c0.002,0.228-0.033,0.434,0.014,0.683c1.379,7.306,2.702,14.621,4.045,21.933c0.167,0.907,0.304,1.834,0.453,2.752
		c-0.559,0.028-1.113,0.081-1.665,0.141c-2.019-8.891-4.875-17.752-7.137-25.842c-0.03-0.109-0.096-0.177-0.132-0.279
		C666.664,248.837,668.138,249.044,669.597,249.357z M658.917,248.958c-0.015,0.357-0.044,0.706,0.044,1.128
		c1.845,8.877,2.52,18.329,3.698,27.578c-0.53,0.252-1.059,0.501-1.58,0.782c-3.31-9.333-8.155-18.583-12.459-26.795
		C652.031,250.31,655.484,249.392,658.917,248.958z M643.913,258.255c-0.495-1.239-0.948-2.494-1.413-3.745
		c0.053-0.029,0.104-0.062,0.156-0.09C643.085,255.696,643.506,256.974,643.913,258.255z M638.187,257.085
		c2.2,10.565,5.079,21.806,11.914,30.002c-1.511,1.59-2.973,3.316-4.394,5.15c-7.73-7.322-14.961-15.01-20.88-24.142
		C628.907,263.918,633.425,260.164,638.187,257.085z M619.701,273.849c5.018,10.1,11.315,20.195,19.329,28.345
		c-0.981,1.673-1.934,3.404-2.864,5.18c-9.285-6.038-17.54-13.388-23.934-22.604C614.331,281.035,616.853,277.356,619.701,273.849z
		 M608.662,292.213c5.327,10.389,12.877,19.155,22.506,25.643c-1.048,2.41-2.057,4.879-3.034,7.39
		c-3.996-2.478-8.81-3.447-13.252-4.973c-4.744-1.631-9.4-3.486-13.977-5.536C603.021,307.014,605.556,299.463,608.662,292.213z
		 M593.793,346.593c8.222,1.922,18.039,4.044,26.366,2.401c-0.714,2.45-1.403,4.906-2.068,7.359c-1.01,0.08-2.023,0.173-3.033,0.221
		c-7.162,0.349-14.68-0.445-21.716-1.844c-0.43-0.086-0.77-0.043-1.125-0.024C592.738,352.014,593.266,349.311,593.793,346.593z
		 M599.371,320.709c4.78,2.733,9.66,5.259,14.762,7.361c3.447,1.42,7.607,3.461,11.577,3.675c-0.979,2.746-1.917,5.532-2.821,8.341
		c-0.439-0.264-0.9-0.468-1.373-0.588c-3.982-1-8.47-0.263-12.56-0.127c-4.605,0.154-9.154,0.124-13.726-0.031
		C596.478,333.117,597.834,326.885,599.371,320.709z M590.968,361.175c0.411,0.39,0.882,0.726,1.452,0.937
		c6.664,2.471,13.285,4.147,20.393,4.715c0.788,0.063,1.648,0.136,2.531,0.206c-0.141,0.574-0.284,1.15-0.422,1.723
		c-1.859,0.477-3.721,0.989-5.607,1.345c-6.713,1.267-13.551,1.871-20.386,1.927C589.6,368.409,590.258,364.788,590.968,361.175z
		 M587.416,380.181c7.804,0.988,15.573,1.179,23.467,0.26c0.439-0.051,0.923-0.097,1.394-0.144
		c-0.116,0.528-0.229,1.053-0.342,1.578c-1.004,0.173-2.005,0.35-2.99,0.511c-7.581,1.24-15.115,2.767-22.632,4.354
		C586.684,384.554,587.029,382.365,587.416,380.181z M597.79,618.328c-9.612,7.299-18.393,15.349-26.227,24.554
		c-0.555,0.652-1.163,1.353-1.776,2.061c-0.067-2.769-0.152-5.536-0.207-8.306c0.962,0.624,2.159,0.698,3.316-0.291
		c10.05-8.59,17.406-21.346,25.277-31.873c2.026-2.709-1.582-7.594-4.199-4.592c-4.689,5.38-9.411,10.731-14.092,16.119
		c-3.604,4.149-7.481,8.225-10.412,12.886c-0.042-2.686-0.086-5.373-0.115-8.06c3.821-3.438,7.225-7.658,10.59-11.285
		c5.283-5.697,10.472-11.487,15.696-17.239c2.874-3.165-2.32-8.82-5.521-5.534c-5.239,5.382-10.532,10.718-15.724,16.145
		c-1.554,1.624-3.333,3.302-5.115,5.04c-0.009-3.209-0.033-6.417-0.024-9.627c5.881-4.896,11.77-9.783,17.607-14.731
		c3.121-2.645,6.823-5.288,10.248-8.17c0.5,7.016,1.137,14.031,2.254,20.941c0.747,4.619,4.676,15.42,4.444,19.799
		c-0.807,15.208-16.902,29.204-29.318,41.914c1.967-2.938,3.761-5.966,5.58-8.451c6.619-9.041,13.68-17.907,21.19-26.227
		C603.147,621.308,600.508,616.264,597.79,618.328z M574.646,476.939c6.333,0.015,12.667-0.509,18.838-2.003
		c1.363-0.33,2.709-0.728,4.017-1.19c-0.278,3.168-0.487,6.34-0.716,9.512c-3.738,0.502-7.059,1.932-10.871,3.449
		c-4.156,1.656-8.316,3.301-12.476,4.948C573.821,486.748,574.207,481.842,574.646,476.939z M598.448,464.327
		c-3.562,0.427-6.981,1.672-10.54,2.647c-4.108,1.125-8.281,1.78-12.506,2.193c0.28-2.906,0.547-5.813,0.846-8.717
		c3.527,0.518,7.092,0.697,10.682,0.326c3.718-0.385,9.261-0.848,11.885-3.788c0.215-0.241,0.338-0.505,0.485-0.763
		C598.984,458.923,598.728,461.626,598.448,464.327z M572.726,501.077c5.338-1.805,10.675-3.612,16.011-5.42
		c2.467-0.836,5.02-1.489,7.388-2.413c-0.185,3.337-0.326,6.677-0.454,10.016c-4.426,1.556-8.207,4.071-12.307,6.413
		c-3.787,2.163-7.67,4.133-11.596,6.02C572.058,510.819,572.382,505.947,572.726,501.077z M571.157,527.175
		c5.917-2.364,11.764-4.878,17.459-7.744c2.165-1.089,4.489-2.178,6.712-3.416c-0.069,3.99-0.139,7.979-0.127,11.97
		c-0.071,0.022-0.15,0.019-0.22,0.047c-4.294,1.695-7.237,5.251-10.785,8.117c-4.313,3.486-9.118,6.781-13.872,9.825
		C570.56,539.706,570.837,533.439,571.157,527.175z M599.673,453.073c-0.595-1.987-2.557-3.627-4.887-3.471
		c-3.033,0.203-5.549,1.502-8.47,2.27c-2.999,0.788-6.136,1.196-9.276,1.29c0.283-2.58,0.582-5.157,0.882-7.735
		c4.179-0.656,8.369-1.245,12.537-2.014c3.628-0.671,7.299-1.179,10.813-2.179C600.709,445.177,600.156,449.121,599.673,453.073z
		 M569.446,577.699c3.924-2.944,7.887-5.835,11.933-8.599c4.59-3.136,10.951-5.929,13.584-10.981
		c0.939-1.803-0.195-5.172-2.671-4.666c-6.756,1.379-12.504,7.318-17.641,11.584c-1.721,1.429-3.335,2.982-5.022,4.453
		c0.111-5.142,0.235-10.283,0.399-15.422c0.805,0.396,1.7,0.523,2.587,0.182c5.982-2.303,11.504-5.161,16.824-8.744
		c1.816-1.223,3.96-2.531,5.962-4.014c0.175,6.843,0.435,13.684,0.848,20.522c0.009,0.138,0.018,0.278,0.026,0.417
		c-6.145,4.431-11.431,10.552-16.724,15.779c-3.407,3.365-6.807,6.737-10.209,10.107
		C569.374,584.777,569.39,581.237,569.446,577.699z M456.75,665.496c-3.56,2.476-5.68,6.894-8.264,10.315
		c-0.403,0.534-0.882,1.001-1.296,1.525c-4.113,0.071-8.231,0.129-12.346,0.195c1.909-1.58,3.891-3.065,5.753-4.704
		c5.114-4.502,10.919-9.222,15.635-14.606C456.399,660.646,456.58,663.071,456.75,665.496z M455.308,644.158
		c-8.649,6.971-15.327,16.582-23.194,24.422c-3.171,3.16-6.466,6.175-9.798,9.149c-6.039,0.092-12.078,0.197-18.12,0.288
		c5.836-4.847,11.673-9.691,17.513-14.534c6.692-5.549,14.319-10.923,18.977-18.361c0.498-0.797,0.509-1.884,0.185-2.802
		c4.687-0.26,9.445-0.5,14.269-0.826C455.197,642.382,455.25,643.27,455.308,644.158z M416.256,644.75
		c5.738-0.989,11.578-1.572,17.531-1.987c-14.992,7.648-28.032,22.95-38.962,35.406c-8.833,0.142-17.671,0.304-26.515,0.477
		c8.804-5.877,17.634-11.715,26.346-17.725C401.829,655.973,410.037,651.019,416.256,644.75z M382.517,658.266
		c-6.099,5.161-12.037,10.411-17.851,15.139c-1.646,1.337-1.237,4.022,0.076,5.319c-3.426,0.069-6.853,0.145-10.281,0.222
		c9.204-5.059,17.105-12.439,25.952-19.194C381.111,659.219,381.816,658.765,382.517,658.266z M369.068,773.903
		c-2.771-2.765-2.595-30.744-3.895-35.784c-4.041-15.658-9.559-31.114-12.844-47.007c67.521,9.388,138.27,6.949,205.933,3.051
		c35.817-2.063,71.508-5.382,107.141-9.52c11.272-1.309,21.373-1.112,28.984,2.826c0.062,0.036,0.124,0.07,0.187,0.105
		c7.107,3.758,12.014,10.823,13.552,23.163c1.907,15.313,2.759,30.617,3.003,45.994c-76.869,3.628-153.714,7.776-230.567,11.712
		c-18.507,0.948-37.014,1.899-55.521,2.855C416.285,771.751,374.597,779.422,369.068,773.903z M682.984,628.273
		c2.655-0.063,5.326-0.056,7.991-0.06c-4.247,4.358-8.178,9.168-12.306,13.378c-6.367,6.491-12.808,12.913-19.391,19.185
		c-0.465,0.443-0.653,0.997-0.733,1.578c-8.625,1.543-16.953,3.342-24.256,4.61c8.686-6.113,17.223-12.394,25.509-19.13
		C666.204,642.629,676.864,635.995,682.984,628.273z M716.073,629.127c-0.982,2.587-2.023,5.137-3.117,7.652
		c0.282-1.167,0.407-2.353,0.2-3.559c-0.518-3.01-4.189-4.604-6.648-2.92c-4.01,2.744-6.044,8.714-9.037,12.588
		c-3.169,4.102-6.361,8.069-10.104,11.667c-1.33,1.278-1.185,3.444-0.255,4.822c-4.955-0.052-10.119,0.343-15.325,0.97
		c5.855-5.16,11.656-10.378,17.318-15.751c5.112-4.85,11.798-9.982,15.863-16.104C708.647,628.642,712.347,628.844,716.073,629.127z
		 M730.912,675.117c0.523-1.417,1.105-2.881,1.686-4.368c0.572,2.614,1.134,5.231,1.707,7.845
		c-2.873,3.332-5.641,6.754-8.257,10.315c-0.219-0.799-0.448-1.59-0.677-2.376C728.105,683.366,729.441,679.101,730.912,675.117z
		 M732.52,728.14c0.018-0.022,0.038-0.042,0.055-0.063c-0.018,0.033-0.034,0.065-0.051,0.098
		C732.522,728.164,732.521,728.152,732.52,728.14z M744.52,741.19c-0.811-0.276-1.713-0.078-2.383,0.935
		c-2.3,3.476-5.111,6.615-8.345,9.252c-0.062-1.7-0.138-3.405-0.209-5.117c1.46-1.665,2.797-3.519,4.089-5.734
		c2.692-4.612,3.957-9.039,4.172-14.354c0.093-2.302-2.126-4.761-4.197-4.898c0.682-0.985,1.356-1.965,2.072-2.97
		c0.894-1.252,1.768-2.516,2.655-3.771C744.512,723.609,746.168,733.152,744.52,741.19z M739.02,700.417
		c0.144,0.685,0.328,1.429,0.489,2.14c-2.797,3.314-5.595,6.629-8.38,9.953c-0.082,0.098-0.168,0.194-0.251,0.292
		c-0.335-2.458-0.728-4.884-1.146-7.301c2.25-3.735,3.994-7.897,6.049-11.633c0.426-0.774,0.895-1.518,1.33-2.283
		C737.748,694.528,738.402,697.469,739.02,700.417z M691.597,659.583c4.93-3.156,9.622-6.644,13.492-11.068
		c1.847-2.112,4.17-4.569,5.873-7.237c-3.129,6.71-6.626,13.216-10.412,19.635C697.697,660.244,694.712,659.798,691.597,659.583z
		 M624.532,922.825c2.23,7.092,4.381,14.195,6.382,21.328c-4.982,9.676-10.005,19.338-15.222,28.884
		c-3.288,6.017-7.671,12.306-10.643,18.901c-0.421-2.758-0.82-5.518-1.237-8.276c2.269-4.522,4.1-9.344,6.158-13.867
		c3.689-8.112,7.213-16.305,11.12-24.31c1.355-2.775-2.543-5.516-4.135-2.387c-4.429,8.703-9.327,17.21-14.009,25.786
		c-0.342,0.626-0.708,1.253-1.062,1.88c-0.512-3.443-1.037-6.884-1.543-10.327c4.862-5.433,8.213-11.974,11.746-18.397
		c4.005-7.284,7.9-14.591,11.545-22.049C623.932,920.935,624.236,921.883,624.532,922.825z M638.483,977.217
		c-2.19-1.941-5.82-2.357-7.203,0.867c-5.16,12.027-10.932,23.737-17.122,35.265c-1.478,2.752-3.028,5.462-4.517,8.193
		c-0.774-4.935-1.535-9.872-2.298-14.809c0.209-0.125,0.42-0.214,0.623-0.396c8.953-8.02,13.755-19.986,19.178-30.548
		c2.72-5.298,5.305-10.654,7.835-16.034C636.338,965.535,637.514,971.355,638.483,977.217z M592.868,841.806
		c-2.177,3.38-5.068,6.078-7.161,9.54c-0.574-4.811-1.105-9.625-1.659-14.437c4.586-3.402,8.575-7.789,12.602-11.747
		c0.903-0.887,1.925-1.806,2.973-2.753c0.52,6.538,1.384,13.051,2.502,19.54C599.725,839.487,594.884,838.678,592.868,841.806z
		 M597.684,941.956c-0.477-3.33-0.953-6.659-1.422-9.99c1.333,0.442,2.751,0.545,3.835,0.129c1.652-0.634,3.196-1.484,4.656-2.478
		c-1.497,2.639-3.008,5.27-4.497,7.917C599.435,938.995,598.559,940.469,597.684,941.956z M618.731,909.31
		c0.268-0.778,0.522-1.558,0.756-2.341c0.253,0.793,0.505,1.584,0.758,2.375C619.728,909.26,619.226,909.238,618.731,909.31z
		 M614.932,892.489c-2.858,6.839-6.259,13.485-10.625,19.479c-2.662,3.655-6.624,6.748-9.411,10.393
		c-0.677-4.886-1.316-9.778-1.976-14.666c0.116-0.063,0.23-0.084,0.346-0.175c5.859-4.524,9.089-9.982,13.003-16.131
		c1.842-2.893,3.854-5.669,5.76-8.518C612.977,886.084,613.943,889.29,614.932,892.489z M598.122,885.602
		c-2.657,3.784-4.963,7.239-6.676,11.085c-0.48-3.625-0.985-7.247-1.454-10.873c3.794-4.508,6.87-9.772,9.914-14.716
		c1.896-3.079,4.208-6.299,6.318-9.625c0.793,3.258,1.631,6.509,2.508,9.754C605.111,875.956,601.546,880.726,598.122,885.602z
		 M599.799,853.844c1.16-2.242,2.261-4.519,3.267-6.884c0.17,0.886,0.319,1.772,0.498,2.657
		C602.247,850.928,601,852.354,599.799,853.844z M578.867,788.296c0.983-0.055,1.965-0.111,2.948-0.166
		c-0.914,0.793-1.812,1.603-2.723,2.399C579.018,789.784,578.94,789.04,578.867,788.296z M558.225,1131.939
		c-14.677,1.516-25.12,5.033-32.057-7.28c-7.66-13.595-7.969-35.525-10.428-50.611c-0.346-2.125-0.62-4.261-0.957-6.387
		c1.066,1.149,2.512,1.985,4.091,1.87c9.764-0.702,24.922-3.335,31.036-11.861c1.491-2.08-0.727-6.308-3.436-5.708
		c-4.846,1.073-9.327,3.528-14.042,5.138c-5.39,1.84-10.846,3.252-16.486,4.06c-0.939,0.135-1.537,0.506-1.993,0.958
		c-2.663-17.233-5.079-34.502-7.318-51.797c0.187,0.011,0.354,0.08,0.551,0.055c14.952-1.817,29.183-4.971,42.585-12.012
		c2.142-1.126,1.595-6.045-1.229-5.361c-14.263,3.459-28.382,7.589-42.836,10.224c-0.415-3.256-0.871-6.507-1.279-9.763
		c-0.593-4.739-1.119-9.486-1.696-14.226c6.498-0.48,12.888-1.435,19.228-3.205c5.462-1.524,12.176-2.907,15.542-7.745
		c1.653-2.374-0.798-5.827-3.435-5.708c-6.19,0.28-11.997,3.287-17.94,4.962c-4.741,1.336-9.567,2.301-14.419,3.116
		c-1.564-13.047-3.104-26.096-4.561-39.156c10.385,1.597,26.359,1.453,34.827-4.675c3.303-2.39,0.567-7.362-3.102-7.02
		c-5.749,0.536-11.313,2.748-17.048,3.672c-5.1,0.821-10.257,1.019-15.405,1.32c-1.658-15.04-3.274-30.085-4.813-45.138
		c4.518-1.46,9.048-2.874,13.549-4.406c6.894-2.345,14.608-4.064,20.842-7.878c4.083-2.498,0.646-8.792-3.666-7.998
		c-10.671,1.964-21.306,6.694-31.617,11.344c-0.578-5.737-1.154-11.474-1.719-17.212c5.565-2.07,11.136-4.126,16.683-6.242
		c6.546-2.498,15.348-3.932,20.06-9.297c1.947-2.216,0.59-6.522-2.719-6.301c-8.242,0.55-15.808,5.27-23.285,8.618
		c-3.852,1.725-7.692,3.474-11.539,5.21c-0.681-6.998-1.345-13.998-2.006-20.999c14.492-3.04,33.285-6.407,43.836-17.363
		c1.206-1.253,0.36-4.627-1.694-4.355c-14.641,1.942-28.604,9.431-42.877,13.817c-0.708-7.576-1.425-15.153-2.114-22.731
		c2.694-0.245,5.389-0.493,8.082-0.751c23.781-1.303,47.563-2.609,71.343-3.923c1.862,19.09,3.914,38.158,6.14,57.204
		c-0.224,0.026-0.438,0.013-0.674,0.096c-7.169,2.519-13.572,6.93-20.098,10.778c-3.975,2.345,0.874,8.933,4.868,6.7
		c5.57-3.114,11.835-5.962,16.821-10.048c2.913,24.434,6.077,48.836,9.468,73.209c-0.209-0.029-0.421-0.053-0.666,0.003
		c-5.873,1.344-11.404,5.016-16.75,7.755c-2.825,1.448-0.743,6.851,2.364,5.395c5.207-2.44,11.221-4.487,15.75-8.058
		c3.31,23.593,6.738,47.17,10.374,70.718c3.601,23.321,9.74,47.815,12.946,71.939c-0.588,1.601-1.059,3.228-1.411,4.878
		c-0.479-0.307-1.039-0.507-1.727-0.437c-6.865,0.704-13.498,1.653-20.17,3.603c-5.59,1.634-12.843,3.718-16.068,8.862
		c-1.71,2.727,1.921,6.855,4.746,6.555c5.78-0.613,11.043-3.705,16.277-6.148c5.36-2.502,10.902-4.965,16.49-6.926
		c0.408-0.144,0.739-0.359,1.011-0.619c0.534,0.685,1.245,1.12,2.04,1.042c0.514,5.636,0.894,11.251,0.914,16.799
		c0.005,1.404-0.105,2.708-0.263,3.974c-0.607,0.846-1.19,1.69-1.81,2.538c-1.797,2.462-2.266,5.131-1.882,7.569
		C593.178,1128.778,573.425,1130.37,558.225,1131.939z M619.792,1083.941c-0.683-4.511-1.474-8.895-2.216-13.052
		c3.246-5.693,5.851-11.878,8.434-17.58c6.377-14.083,10.904-28.586,14.42-43.623c0.961-4.109-5.112-7.091-6.61-2.51
		c-4.715,14.414-10.226,28.71-16.9,42.341c-0.673,1.374-1.412,2.745-2.184,4.115c-0.838-5.22-1.671-10.44-2.501-15.661
		c13.345-14.447,20.714-36.245,27.193-54.251c0.612,4.529,1.13,9.079,1.425,13.676
		C642.992,1030.812,634.817,1057.812,619.792,1083.941z M599.619,794.807c-5.412,4.532-10.179,10.403-14.759,15.308
		c-1.02,1.092-2.21,2.248-3.446,3.436c-0.419-3.905-0.786-7.816-1.189-11.724c3.318-2.465,6.655-4.905,9.939-7.415
		c3.042-2.326,6.203-4.511,8.719-7.245c0.55-0.031,1.1-0.062,1.65-0.093C600.173,789.654,599.84,792.234,599.619,794.807z
		 M728.843,652.555c-0.084,0.083-0.187,0.122-0.264,0.217c-4.143,5.165-6.413,11.743-9.162,17.731
		c-0.214,0.468-0.446,0.944-0.675,1.419c-0.601-0.799-1.264-1.566-1.967-2.31c4.232-7.162,7.932-14.575,11.175-22.222
		C728.274,649.243,728.573,650.987,728.843,652.555z M610.639,633.752c1.206,0.873,2.844,1.334,4.927,1.026
		c16.293-2.415,32.076-4.36,47.828-5.512c-3.996,3.905-7.826,7.951-11.652,11.426c-10.245,9.302-20.505,18.572-30.677,27.955
		c-6.743,0.693-13.483,1.285-20.222,1.868c13.349-9.427,26.561-19.424,37.921-30.531c3.014-2.947-2-7.837-5.303-6.069
		c-17.625,9.433-34.099,23.361-48.285,37.915c-4.232,0.317-8.462,0.565-12.694,0.846
		C585.989,660.521,598.308,647.111,610.639,633.752z M604.808,418.947c-0.72,4.001-1.344,8.017-1.984,12.031
		c-5.801-0.189-11.561,1.953-17.111,3.48c-2.264,0.623-4.49,1.356-6.739,2.011c0.607-4.885,1.254-9.764,1.923-14.641
		c2.426,0.34,4.863,0.596,7.351,0.718c4.541,0.224,9.803,0.888,14.048-0.887c3.447-1.44,2.431-6.805-1.095-7.52
		c-4.613-0.935-9.369-0.155-14.065-0.252c-1.692-0.035-3.386-0.129-5.079-0.213c0.725-5.011,1.454-10.022,2.25-15.025
		c7.248-0.297,16.026,0.013,24.38-0.833C607.126,405.925,605.85,413.158,604.808,418.947z M694.144,279.878
		c-0.233-3.53-0.671-7.062-1.237-10.578c0.365,0.692,0.742,1.347,1.094,2.079c1.584,3.295,2.789,6.919,3.84,10.669
		C696.593,281.262,695.36,280.532,694.144,279.878z M800.786,413.76c-10.064,3.43-25.02,1.801-35.581,0.326
		c-32.269-4.508-41.606-25.958-44.357-55.151c-3.27-34.694,2.992-94.232-29.239-116.935c-0.077-3.082-0.754-6.217-0.89-9.408
		c-0.261-6.152,0.254-11.937,1.487-17.961c0.816-3.988-4.974-7.21-6.432-2.629c-1.783,5.599-3.356,11.301-4.501,17.066
		c-0.458,2.308-0.97,4.673-1.297,7.02c-0.322-0.111-0.619-0.247-0.947-0.353c-4.335-1.404-8.459-2.299-12.443-2.871
		c-1.791-6.227-4.083-12.372-6.072-18.444c-0.08-1.38-0.158-2.762-0.137-4.146c0.049-3.259-4.833-4.701-5.462-0.999
		c-1.078,6.356-1.425,15.351,0.553,23.031c-59.826,2.755-76.06,102.777-83.826,146.738c-14.703,83.228-19.47,167.659-18.173,252.036
		c-3.045,1.136-6.013,2.461-9.172,3.515c-6.768,2.26-13.99,3.503-21.084,4.143c-2.862,0.257-2.429,5.524,0.284,5.747
		c8.579,0.71,20.829,0.336,30.128-3.579c0.21,10.022,0.522,20.042,0.893,30.06c-18.044,1.275-36.028,3.003-53.975,5.104
		c-8.945,0.27-17.89,0.526-26.837,0.724c-3.904-53.689-7.142-107.388-7.841-161.14c7.518-0.348,15.607-1.531,21.22-6.254
		c1.719-1.446,0.77-5.303-1.747-5.019c-6.665,0.749-12.973,2.998-19.515,4.436c-0.133-14.912-0.061-29.83,0.255-44.752
		c6.911-1,13.845-2.241,20.42-4.224c2.256-0.681,1.864-5.02-0.63-4.947c-6.538,0.189-13.14,1.099-19.68,2.205
		c0.312-11.805,0.756-23.613,1.403-35.425c2.808-51.277,8.806-102.448,19.241-152.755c6.37-30.707,12.989-64.768,25.267-95.36
		c5.158,5.132,10.511,10.194,16.659,13.825c2.593,1.532,3.69-2.239,2.48-4c-4.355-6.34-10.318-11.632-16.212-16.746
		c2.145-4.887,4.467-9.656,6.957-14.302c5.508,8.564,13.836,16.231,23.072,19.325c3.5,1.172,6.534-2.922,4.216-5.918
		c-3.345-4.323-7.833-7.423-12.204-10.656c-3.97-2.937-7.545-6.338-11.162-9.685c2.374-3.983,4.856-7.884,7.553-11.611
		c30.642-42.34,82.756-58.896,133.09-51.436c1.266,1.262,3.054,1.898,4.517,0.734c0.008-0.006,0.016-0.014,0.024-0.02
		c0.594,0.106,1.192,0.168,1.785,0.281c4.215,0.797,8.345,1.852,12.39,3.134c-0.486,13.079-5.14,24.874-6.609,37.706
		c-0.266,2.321,2.102,5.73,4.452,3.301c9.38-9.697,10.629-25.158,9.771-38.25c7.938,3.168,15.525,7.226,22.752,12.016
		c0.313,1.424,1.191,2.776,2.335,3.612c1.357,0.99,2.952,1.355,4.501,1.198c39.587,29.649,67.496,80.884,81.636,123.584
		c8.437,28.912,12.684,58.241,14.17,88.277c1.121,22.644,4.291,49.413,0.231,71.739c-0.364,2.001-0.722,3.789-1.092,5.468
		c-0.398,0.363-0.736,0.787-1.143,1.142c-3.472,3.019-4.481,6.919-3.944,10.636C809.876,409.718,806.373,411.856,800.786,413.76z"/>
	<path d="M410.014,720.617c1.46-2.773-1.812-7.128-4.872-5.433c-6.313,3.495-11.855,8.937-17.437,13.504
		c-6.485,5.307-13.06,10.433-19.965,15.187c-3.349,2.306-0.294,8.653,3.473,6.653c7.692-4.082,15.311-8.494,22.32-13.676
		C399.422,732.5,406.552,727.187,410.014,720.617z"/>
	<path d="M427.202,734.193c-5.861,2.747-10.708,7.7-15.583,11.879c-5.867,5.03-11.749,10.027-17.286,15.421
		c-2.479,2.417,0.223,7.934,3.546,5.638c6.712-4.637,13.193-9.526,19.662-14.498c4.741-3.644,10.921-7.297,14.27-12.303
		C433.832,737.309,430.945,732.438,427.202,734.193z"/>
	<path d="M551.778,749.167c12.061-8.98,24.33-17.718,35.893-27.329c1.509-1.254,0.239-5.003-1.818-3.672
		c-12.717,8.224-24.732,17.537-36.943,26.491C546.54,746.394,549.072,751.182,551.778,749.167z"/>
	<path d="M607.023,752.498c7.957-6.202,15.932-12.387,23.79-18.713c7.423-5.974,15.577-11.807,20.606-20.044
		c1.342-2.198-0.752-5.464-3.301-4.439c-17.62,7.087-32.722,23.507-47.036,35.634C596.784,748.578,602.793,755.796,607.023,752.498z
		"/>
	<path d="M549.856,1078.656c-8.922,3.149-17.844,6.296-26.766,9.445c-4.86,1.716-0.175,9.288,4.393,7.676
		c8.922-3.148,17.844-6.296,26.766-9.445C559.11,1084.618,554.424,1077.044,549.856,1078.656z"/>
	<path d="M578.352,1041.994c4.127-0.665,8-0.992,12.026-2.142c6.73-1.923,1.629-11.045-4.288-9.354
		c-3.866,1.104-7.188,2.842-10.84,4.477C571.511,1036.646,574.946,1042.543,578.352,1041.994z"/>
	<path d="M567.397,885.788c1.277-2.275-1.191-6.681-4.054-5.73c-1.87,0.621-3.094,1.03-4.646,2.242
		c-0.751,0.586-1.489,1.186-2.231,1.782c-1.75,1.405-3.488,2.822-5.223,4.245c-3.39,2.781,0.59,9.218,4.391,6.714
		C559.605,892.424,565.037,889.99,567.397,885.788z"/>
	<path d="M548.511,590.394c-6.77,1.11-13.192,3.651-19.671,5.844c-2.587,0.875-1.14,6.421,1.56,5.539
		c6.491-2.117,13.163-3.918,19.205-7.138C551.459,593.65,550.838,590.012,548.511,590.394z"/>
	<path d="M594.338,202.325c-32.119,25.788-56.172,69.836-49.743,112.002c0.65,4.267,7.091,5.203,7.693,0.453
		c5.328-42.047,15.035-76.264,45.52-107.383C599.814,205.348,596.953,200.225,594.338,202.325z"/>
	<path d="M797.34,334.965c-6.638,14.846-11.171,28.446-23.744,39.558c-2.08,1.839,0.566,6.958,3.081,5.024
		c13.651-10.499,25.213-25.798,24.984-43.589C801.628,333.381,798.397,332.602,797.34,334.965z"/>
	<path d="M804.777,352.259c-3.628,3.042-5.467,8.551-7.312,12.832c-1.942,4.507-3.838,9.034-5.798,13.533
		c-1.245,2.858,3.188,7.114,5.163,3.817c2.777-4.634,5.628-9.245,8.303-13.938c2.295-4.026,5.261-8.308,5.371-13.014
		C810.571,352.588,807.146,350.274,804.777,352.259z"/>
	<path d="M705.262,113.079c-1.996-0.518-4.911,0.588-4.93,3.039c-0.042,5.476-0.658,11.078,1.048,16.333
		c0.894,2.752,5.644,4.298,6.799,0.902c1.626-4.779,1.014-9.914,0.974-14.915C709.135,115.98,707.771,113.729,705.262,113.079z"/>
</g>
</svg>
